<?xml version="1.0" encoding="utf-8"?>
<!-- Generator: Adobe Illustrator 25.4.1, SVG Export Plug-In . SVG Version: 6.00 Build 0)  -->
<svg version="1.1" id="Layer_1" xmlns="http://www.w3.org/2000/svg" xmlns:xlink="http://www.w3.org/1999/xlink" x="0px" y="0px"
	 viewBox="0 0 407.6 63.1" style="enable-background:new 0 0 407.6 63.1;" xml:space="preserve">
<style type="text/css">
	.st0{fill:#00E2B7;}
</style>
<g>
	<polygon class="st0" points="389.7,63.1 0,63.1 17.9,0 407.6,0 	"/>
	<g>
		<path d="M38.8,49.9V14.4h5.3c1.8,0,3.4,0.3,4.7,1c1.3,0.7,2.3,1.6,3,3s1.1,3.1,1.1,5.2c0,1.7-0.2,3.2-0.7,4.5
			c-0.4,1.3-1.3,2.3-2.6,3.1c1.3,0.7,2.2,1.8,2.8,3.4c0.6,1.5,0.8,3.3,0.8,5.3s-0.3,3.7-1,5.2c-0.6,1.5-1.6,2.7-2.8,3.5
			s-2.8,1.3-4.6,1.3C44.8,49.9,38.8,49.9,38.8,49.9z M44,29c1.5,0,2.5-0.4,3-1.2c0.6-0.8,0.8-2,0.8-3.6s-0.3-2.8-0.9-3.5
			s-1.6-1.1-3-1.1V29H44z M44,44.7c1.6,0,2.6-0.5,3.1-1.4s0.8-2.3,0.8-4c0-1.8-0.2-3.1-0.8-4.1c-0.5-0.9-1.5-1.4-3.1-1.4V44.7z"/>
		<path d="M63.1,50.3c-1.5,0-2.7-0.3-3.7-1s-1.8-1.6-2.4-2.8c-0.6-1.2-0.8-2.5-0.8-3.9V21.7c0-1.5,0.3-2.8,0.8-3.9
			c0.6-1.2,1.4-2.1,2.4-2.7c1-0.7,2.3-1,3.7-1c1.5,0,2.7,0.3,3.7,1s1.8,1.6,2.4,2.8s0.8,2.5,0.8,3.9v20.9c0,1.5-0.3,2.8-0.8,3.9
			c-0.6,1.2-1.4,2.1-2.4,2.8C65.8,49.9,64.5,50.3,63.1,50.3z M63.1,45.2c0.6,0,1.1-0.3,1.4-0.8s0.4-1.1,0.4-1.8V21.7
			c0-0.7-0.1-1.3-0.4-1.8s-0.7-0.8-1.3-0.8s-1,0.3-1.3,0.8s-0.4,1.1-0.4,1.8v20.9c0,0.7,0.1,1.3,0.4,1.8
			C62,44.9,62.5,45.2,63.1,45.2z"/>
		<path d="M80.4,50.3c-1.5,0-2.7-0.3-3.7-1s-1.8-1.6-2.4-2.8s-0.8-2.5-0.8-3.9V21.7c0-1.5,0.3-2.8,0.8-3.9c0.6-1.2,1.4-2.1,2.4-2.7
			c1-0.7,2.3-1,3.7-1c1.5,0,2.7,0.3,3.7,1s1.8,1.6,2.4,2.8s0.8,2.5,0.8,3.9v20.9c0,1.5-0.3,2.8-0.8,3.9c-0.6,1.2-1.4,2.1-2.4,2.8
			C83.1,49.9,81.8,50.3,80.4,50.3z M80.4,45.2c0.6,0,1.1-0.3,1.4-0.8s0.4-1.1,0.4-1.8V21.7c0-0.7-0.1-1.3-0.4-1.8
			C81.4,19.3,81,19,80.4,19s-1,0.3-1.3,0.8s-0.4,1.1-0.4,1.8v20.9c0,0.7,0.1,1.3,0.4,1.8C79.3,44.9,79.8,45.2,80.4,45.2z"/>
		<path d="M91,49.9V14.4h5.2v11.8v0.6h0.2l0.2-0.6l4.1-11.8h5.4l-4.8,11.7l5.4,23.8h-5.4l-3.5-16.2h-0.1l-1.5,3.6v12.6H91z"/>
		<path d="M120.7,49.9V34.8l-5.3-20.4h5.1l2.6,11.4l0.2,1.5h0.1l0.2-1.5l2.6-11.4h5.1L126,34.8v15.1H120.7z"/>
		<path d="M140.6,50.3c-1.5,0-2.7-0.3-3.7-1s-1.8-1.6-2.4-2.8c-0.6-1.2-0.8-2.5-0.8-3.9V21.7c0-1.5,0.3-2.8,0.8-3.9
			c0.6-1.2,1.4-2.1,2.4-2.7c1-0.7,2.3-1,3.7-1c1.5,0,2.7,0.3,3.7,1s1.8,1.6,2.4,2.8c0.6,1.2,0.8,2.5,0.8,3.9v20.9
			c0,1.5-0.3,2.8-0.8,3.9c-0.6,1.2-1.4,2.1-2.4,2.8C143.3,49.9,142,50.3,140.6,50.3z M140.6,45.2c0.6,0,1.1-0.3,1.4-0.8
			c0.3-0.5,0.4-1.1,0.4-1.8V21.7c0-0.7-0.1-1.3-0.4-1.8c-0.3-0.5-0.7-0.8-1.3-0.8s-1,0.3-1.3,0.8S139,21,139,21.7v20.9
			c0,0.7,0.1,1.3,0.4,1.8C139.5,44.9,140,45.2,140.6,45.2z"/>
		<path d="M158.1,50.3c-1.5,0-2.7-0.3-3.8-1c-1-0.7-1.8-1.6-2.4-2.8c-0.5-1.2-0.8-2.5-0.8-3.9V14.4h5.2v28.2c0,0.7,0.1,1.3,0.4,1.8
			c0.3,0.5,0.7,0.8,1.3,0.8s1.1-0.3,1.4-0.8c0.3-0.5,0.4-1.1,0.4-1.8V14.4h5.2v28.2c0,1.5-0.3,2.8-0.8,3.9c-0.6,1.2-1.4,2.1-2.4,2.8
			C160.8,49.9,159.6,50.3,158.1,50.3z"/>
		<path d="M169,49.9V14.4h5.2c3.1,0,5.4,0.9,6.9,2.6s2.2,4.3,2.2,7.7c0,2-0.4,3.7-1.1,5.2c-0.7,1.5-1.6,2.5-2.6,3.2l3.6,16.9H178
			l-3-15h-0.9v15L169,49.9L169,49.9z M174.2,30.1c1,0,1.7-0.2,2.3-0.6s1-1,1.2-1.8s0.4-1.7,0.4-2.8c0-1.7-0.3-3-0.8-3.9
			c-0.6-0.9-1.6-1.4-3-1.4L174.2,30.1L174.2,30.1z"/>
		<path d="M197.2,49.9V19.7h-4.9v-5.4h15.1v5.4h-4.9v30.2H197.2z"/>
		<path d="M209.7,49.9V14.4h5.2v35.5H209.7z"/>
		<path d="M225.6,50.3c-1.5,0-2.7-0.3-3.8-1c-1-0.7-1.8-1.6-2.4-2.7c-0.5-1.2-0.8-2.5-0.8-3.9v-21c0-1.5,0.3-2.8,0.8-3.9
			c0.6-1.2,1.4-2.1,2.4-2.8s2.3-1,3.7-1c1.1,0,2,0.2,2.9,0.6c0.9,0.4,1.6,1,2.2,1.7c0.6,0.7,1.1,1.5,1.4,2.4c0.3,0.9,0.5,1.9,0.5,3
			v4.9h-4.9v-4.9c0-0.7-0.2-1.4-0.5-1.9s-0.8-0.8-1.5-0.8c-0.6,0-1.1,0.3-1.4,0.8c-0.3,0.5-0.4,1.1-0.4,1.8v20.9
			c0,0.7,0.2,1.3,0.5,1.8s0.8,0.8,1.4,0.8c0.7,0,1.2-0.2,1.5-0.8c0.3-0.5,0.4-1.1,0.4-1.9v-4.9h4.9v4.9c0,1.5-0.3,2.8-0.8,3.9
			c-0.6,1.2-1.4,2.1-2.4,2.8C228.2,49.9,227,50.3,225.6,50.3z"/>
		<path d="M236.1,49.9V14.4h5.2v11.8v0.6h0.2l0.2-0.6l4.1-11.8h5.4l-4.8,11.7l5.4,23.8h-5.4L243,33.7h-0.1l-1.5,3.6v12.6H236.1z"/>
		<path d="M254.3,49.9V14.4h11.9v5.4h-6.7v9.6h4.8v5.2h-4.8v10h6.7V50L254.3,49.9L254.3,49.9z"/>
		<path d="M273.6,49.9V19.7h-4.9v-5.4h15.1v5.4h-4.9v30.2H273.6z"/>
		<path d="M292.4,50.3c-1.4,0-2.6-0.2-3.6-0.7s-1.7-1.2-2.2-2.1s-0.9-2-1.2-3.3c-0.2-1.3-0.4-2.7-0.4-4.3l5.1-0.5
			c0,0.8,0,1.5,0.1,2.2s0.2,1.4,0.3,1.9c0.2,0.6,0.4,1,0.7,1.4c0.3,0.3,0.7,0.5,1.1,0.5c0.8,0,1.3-0.4,1.6-1.1
			c0.3-0.7,0.5-1.6,0.5-2.6s-0.3-2.1-0.8-3.2c-0.5-1.1-1.2-2.1-1.9-3.1c-1.3-1.7-2.4-3.2-3.3-4.7c-0.9-1.4-1.7-2.8-2.2-4.2
			c-0.5-1.4-0.8-2.8-0.8-4.4c0-1.2,0.2-2.3,0.5-3.3s0.8-1.9,1.3-2.6c0.6-0.7,1.3-1.3,2.1-1.8c0.8-0.4,1.8-0.6,2.9-0.6
			c1.3,0,2.5,0.2,3.4,0.7s1.7,1.1,2.2,1.9c0.6,0.8,1,1.8,1.3,3s0.4,2.4,0.4,3.8l-5.1,0.5c0-0.6,0-1.2-0.1-1.8s-0.2-1.2-0.3-1.7
			c-0.1-0.5-0.4-0.9-0.6-1.2c-0.3-0.3-0.6-0.5-1.1-0.5c-0.7,0-1.1,0.3-1.4,0.9s-0.4,1.4-0.4,2.4c0,1.4,0.4,2.7,1.1,3.9
			c0.7,1.3,1.7,2.7,2.9,4.4c1.5,2,2.7,3.8,3.6,5.5s1.4,3.5,1.4,5.5c0,1.3-0.1,2.5-0.4,3.5c-0.3,1.1-0.7,2-1.3,2.8
			c-0.6,0.8-1.3,1.4-2.2,1.9C294.8,50.1,293.7,50.3,292.4,50.3z"/>
		<path d="M309.9,49.9V14.4h4.9l4.8,18.5l0.4,1.6h0.3V14.4h4.8v35.5h-4.4l-5.3-18.5l-0.4-1.6h-0.3V50L309.9,49.9L309.9,49.9z"/>
		<path d="M335.8,50.3c-1.5,0-2.7-0.3-3.7-1s-1.8-1.6-2.4-2.8s-0.8-2.5-0.8-3.9V21.7c0-1.5,0.3-2.8,0.8-3.9c0.6-1.2,1.4-2.1,2.4-2.7
			c1-0.7,2.3-1,3.7-1c1.5,0,2.7,0.3,3.7,1s1.8,1.6,2.4,2.8s0.8,2.5,0.8,3.9v20.9c0,1.5-0.3,2.8-0.8,3.9c-0.6,1.2-1.4,2.1-2.4,2.8
			C338.5,49.9,337.2,50.3,335.8,50.3z M335.8,45.2c0.6,0,1.1-0.3,1.4-0.8s0.4-1.1,0.4-1.8V21.7c0-0.7-0.1-1.3-0.4-1.8
			s-0.7-0.8-1.3-0.8c-0.6,0-1,0.3-1.3,0.8s-0.4,1.1-0.4,1.8v20.9c0,0.7,0.1,1.3,0.4,1.8C334.7,44.9,335.1,45.2,335.8,45.2z"/>
		<path d="M349.9,49.9l-4.8-35.5h4.8l2.1,18.5l0.1,1.2h0.4l0.1-1.2l2.2-18.5h3.8l2.2,18.5L361,34h0.4l0.1-1.2l2.1-18.5h4.8
			l-4.8,35.5h-4.1L357.1,33l-0.3-2.1h-0.2l-0.3,2.1L354,49.9H349.9z"/>
	</g>
</g>
</svg>
