<?xml version="1.0" encoding="utf-8"?>
<!-- Generator: Adobe Illustrator 25.4.1, SVG Export Plug-In . SVG Version: 6.00 Build 0)  -->
<svg version="1.1" id="Layer_1" xmlns="http://www.w3.org/2000/svg" xmlns:xlink="http://www.w3.org/1999/xlink" x="0px" y="0px"
	 viewBox="0 0 589.9 146.2" style="enable-background:new 0 0 589.9 146.2;" xml:space="preserve">
<style type="text/css">
	.st0{fill:#00E2B7;}
	.st1{fill:#FFFFFF;}
</style>
<g>
	<g>
		<g>
			<g>
				<polygon class="st0" points="144.9,26.4 315.3,26.4 124.5,146.2 				"/>
			</g>
			<g>
				<g>
					<path class="st1" d="M61.2,18.4c0.7,0.8,0.9,1.8,0.7,2.8L59,37.3c-0.5,2.3-2.4,4-4.7,4H26.5l-1.8,10.1H0l6.1-34.3h52.5
						C59.6,17.1,60.6,17.6,61.2,18.4z M36.6,24.2c0.1-0.3,0-0.7-0.2-0.9c-0.2-0.3-0.5-0.4-0.9-0.4h-5.8l-2.3,12.8h5.8
						c0.8,0,1.4-0.6,1.6-1.3L36.6,24.2L36.6,24.2z"/>
				</g>
				<g>
					<path class="st1" d="M92.8,17.2l-6.1,34.3H62l6-34.3H92.8z"/>
				</g>
				<g>
					<path class="st1" d="M160.6,17.2l-1,5.7h-19l-5,28.6h-24.7l5-28.6h-19l1-5.7H160.6z"/>
				</g>
				<g>
					<path class="st1" d="M51.4,70.6c-0.1,0.3,0,0.7,0.2,0.9c0.2,0.3,0.5,0.4,0.9,0.4H79c1,0,2,0.4,2.7,1.2s0.9,1.8,0.7,2.8l-2.1,12
						c-0.5,2.3-2.4,4-4.7,4H22.8l1-5.7h30.7c0.8,0,1.4-0.6,1.6-1.3l1.1-6c0.1-0.3,0-0.7-0.2-0.9c-0.2-0.3-0.5-0.4-0.9-0.4H29.5
						c-1,0-2-0.4-2.7-1.2c-0.7-0.8-0.9-1.8-0.7-2.8l2.1-11.9c0.5-2.3,2.4-4,4.7-4h52.8l-1,5.7H54.1c-0.8,0-1.4,0.6-1.6,1.3
						L51.4,70.6z"/>
				</g>
				<g>
					<path class="st1" d="M153.7,57.7l-1,5.7h-19l-5,28.6H104l5-28.6H90l1-5.7H153.7z"/>
				</g>
				<g>
					<path class="st1" d="M214.6,58.9c0.7,0.8,0.9,1.8,0.7,2.8L210.7,88c-0.5,2.3-2.4,4-4.8,4h-48.8c-1,0-2-0.4-2.7-1.2
						c-0.7-0.8-0.9-1.8-0.7-2.8l4.6-26.2c0.5-2.3,2.4-4,4.8-4H212C213,57.6,214,58.1,214.6,58.9z M190,64.7c0.1-0.3,0-0.7-0.2-0.9
						s-0.5-0.4-0.9-0.4h-4.8c-0.8,0-1.4,0.6-1.6,1.3L179,84.9c-0.1,0.3,0,0.7,0.2,0.9c0.2,0.3,0.5,0.4,0.9,0.4h4.7
						c0.8,0,1.4-0.6,1.6-1.3L190,64.7L190,64.7z"/>
				</g>
				<g>
					<path class="st1" d="M276.6,58.9c0.7,0.8,0.9,1.8,0.7,2.8l-2.8,16.1c-0.5,2.3-2.4,4-4.8,4h-27.8L240.1,92h-24.7l6.1-34.3H274
						C275,57.6,276,58.1,276.6,58.9z M252,64.7c0.1-0.3,0-0.7-0.2-0.9c-0.2-0.3-0.5-0.4-0.9-0.4h-5.8l-2.3,12.8h5.8
						c0.8,0,1.4-0.6,1.6-1.3L252,64.7L252,64.7z"/>
				</g>
			</g>
		</g>
	</g>
	<g>
		<g>
			<g>
				<path class="st1" d="M493,106.2L487.5,91l-1.3,2.9v12.3H473V71.3h13.2V84v4l6.5-16.8h13.5l-7.1,16.5l8.2,18.4L493,106.2
					L493,106.2z M522.7,71.3v34.9h-13.2V71.3H522.7z M545.3,106.2l-8.9-15.6v15.6h-9.8V71.3H538l9.4,16.6V71.3h9.7v34.9
					C557.1,106.2,545.3,106.2,545.3,106.2z M581.3,71.3l-0.2,5.5l-6.4,22.9h7.7l-0.2,6.4h-20.8v-5.8l7-22.7h-7.8l-0.3-6.4
					L581.3,71.3L581.3,71.3z M470,71.3l-0.3,6.4h-7.8l7,22.7v5.8H448l-0.2-6.4h7.7L449,76.9l-0.2-5.5L470,71.3L470,71.3z"/>
			</g>
		</g>
		<g>
			<g>
				<path class="st1" d="M396.6,28.1c0.7,0.8,0.9,1.9,0.7,2.9l-2.9,16.3c-0.5,2.3-2.4,4-4.8,4.1h-13.7l-1.8,10.2h-10.6l6.1-34.7
					h24.2C394.9,26.8,395.9,27.3,396.6,28.1z M386.2,34c0.1-0.3,0-0.7-0.2-1s-0.6-0.4-0.9-0.4h-5.8l-2.3,13h5.8
					c0.8,0,1.4-0.6,1.6-1.4L386.2,34L386.2,34z"/>
			</g>
			<g>
				<path class="st1" d="M428.1,28.1c0.7,0.8,0.9,1.9,0.7,2.9l-4.7,26.5c-0.5,2.3-2.4,4-4.8,4.1h-20.5c-1,0-2-0.4-2.7-1.2
					s-0.9-1.9-0.7-2.9l4.7-26.5c0.5-2.3,2.4-4,4.8-4.1h20.5C426.4,26.8,427.4,27.3,428.1,28.1z M417.7,34c0.1-0.3,0-0.7-0.2-1
					s-0.6-0.4-0.9-0.4h-4.8c-0.8,0-1.4,0.6-1.6,1.4l-3.6,20.4c-0.1,0.3,0,0.7,0.2,1s0.6,0.4,0.9,0.4h4.8c0.8,0,1.4-0.6,1.6-1.4
					L417.7,34L417.7,34z"/>
			</g>
			<g>
				<path class="st1" d="M469.9,26.8l-6.1,34.7h-14.5l0.7-26.8l-8.7,26.8h-14.5l6.1-34.7h10.6l-3.9,21.9l7.1-21.9h9.3l-0.6,21.9
					l3.9-21.9C459.3,26.8,469.9,26.8,469.9,26.8z"/>
			</g>
			<g>
				<path class="st1" d="M483.7,32.6l-2.3,13h13.4l-1,5.8h-13.4l-0.8,4.4H493l-1,5.8h-24l6.1-34.7h24l-1,5.8L483.7,32.6L483.7,32.6z
					"/>
			</g>
			<g>
				<path class="st1" d="M529.2,28.1c0.7,0.8,0.9,1.9,0.7,2.9l-2.4,13.6c-0.3,1.5-0.9,2.8-1.9,3.9c0.6,1.2,0.8,2.6,0.6,3.9l-1.6,9
					H514l1.5-8.7c0.1-0.3,0-0.7-0.2-1s-0.6-0.4-0.9-0.4h-5.8l-1.8,10.1h-10.6l6.1-34.6h24.2C527.5,26.8,528.5,27.3,529.2,28.1z
					 M518.7,34c0.1-0.3,0-0.7-0.2-1s-0.6-0.4-0.9-0.4h-5.8l-2.3,13h5.8c0.8,0,1.4-0.6,1.6-1.4L518.7,34L518.7,34z"/>
			</g>
			<g>
				<path class="st1" d="M543.6,32.6l-2.3,13h13.4l-1,5.8h-13.4l-0.8,4.4H553l-1,5.8h-24l6.1-34.7h24l-1,5.8L543.6,32.6L543.6,32.6z
					"/>
			</g>
			<g>
				<path class="st1" d="M589.1,28.1c0.7,0.8,0.9,1.9,0.7,2.9l-4.7,26.5c-0.5,2.3-2.4,4-4.8,4.1h-24.2l6.1-34.7h24.2
					C587.5,26.8,588.5,27.3,589.1,28.1z M578.5,33c-0.2-0.3-0.6-0.4-0.9-0.4h-5.8l-4.1,23.1h5.8c0.8,0,1.4-0.6,1.6-1.4l3.6-20.4
					C578.8,33.6,578.7,33.3,578.5,33z"/>
			</g>
			<g>
				<path class="st1" d="M396.6,72.6c0.7,0.8,0.9,1.9,0.7,2.9l-1.6,9.3c-0.3,1.5-1,2.9-2,4c0.6,1.2,0.9,2.6,0.6,4l-1.6,9.3
					c-0.5,2.3-2.4,4-4.8,4.1h-24.2l6.1-34.7H394C394.9,71.3,395.9,71.8,396.6,72.6z M383.6,93c0.1-0.3,0-0.7-0.2-1s-0.6-0.4-0.9-0.4
					h-5.8l-1.5,8.6h5.8c0.8,0,1.4-0.6,1.6-1.4L383.6,93L383.6,93z M386.1,78.5c0.1-0.3,0-0.7-0.2-1s-0.6-0.4-0.9-0.4h-5.8l-1.5,8.6
					h5.8c0.8,0,1.4-0.6,1.6-1.4L386.1,78.5L386.1,78.5z"/>
			</g>
			<g>
				<path class="st1" d="M429.8,71.3l-5.4,30.6c-0.5,2.3-2.4,4-4.8,4.1h-24.2l1-5.8h16.4c0.8,0,1.4-0.6,1.6-1.4l0.5-2.9h-13.7
					c-1,0-2-0.4-2.7-1.2s-0.9-1.9-0.7-2.9l3.6-20.5H412l-3.1,17.5c-0.1,0.3,0,0.7,0.2,1s0.5,0.4,0.9,0.4h5.8l3.3-18.9
					C419.1,71.3,429.8,71.3,429.8,71.3z"/>
			</g>
		</g>
	</g>
	<g>
		<rect x="334.4" class="st1" width="3" height="129"/>
	</g>
</g>
</svg>
