<?xml version="1.0" encoding="utf-8"?>
<!-- Generator: Adobe Illustrator 25.4.1, SVG Export Plug-In . SVG Version: 6.00 Build 0)  -->
<svg version="1.1" id="Layer_1" xmlns="http://www.w3.org/2000/svg" xmlns:xlink="http://www.w3.org/1999/xlink" x="0px" y="0px"
	 viewBox="0 0 221.6 63.1" style="enable-background:new 0 0 221.6 63.1;" xml:space="preserve">
<style type="text/css">
	.st0{fill:#00E2B7;}
</style>
<g>
	<polygon class="st0" points="203.8,63.1 0,63.1 17.9,0 221.6,0 	"/>
	<g>
		<path d="M42.8,49.9V14.4h5.3c1.8,0,3.4,0.3,4.7,1c1.3,0.7,2.3,1.6,3,3s1.1,3.1,1.1,5.2c0,1.7-0.2,3.2-0.7,4.5
			c-0.4,1.3-1.3,2.3-2.6,3.1c1.3,0.7,2.2,1.8,2.8,3.4c0.6,1.5,0.8,3.3,0.8,5.3s-0.3,3.7-1,5.2c-0.6,1.5-1.6,2.7-2.8,3.5
			s-2.8,1.3-4.6,1.3C48.8,49.9,42.8,49.9,42.8,49.9z M48,29c1.5,0,2.5-0.4,3-1.2c0.6-0.8,0.8-2,0.8-3.6s-0.3-2.8-0.9-3.5
			s-1.6-1.1-3-1.1V29H48z M48,44.7c1.6,0,2.6-0.5,3.1-1.4s0.8-2.3,0.8-4c0-1.8-0.2-3.1-0.8-4.1c-0.5-0.9-1.5-1.4-3.1-1.4V44.7z"/>
		<path d="M67.1,50.3c-1.5,0-2.7-0.3-3.7-1c-1-0.7-1.8-1.6-2.4-2.8c-0.6-1.2-0.8-2.5-0.8-3.9V21.7c0-1.5,0.3-2.8,0.8-3.9
			c0.6-1.2,1.4-2.1,2.4-2.7c1-0.7,2.3-1,3.7-1c1.5,0,2.7,0.3,3.7,1s1.8,1.6,2.4,2.8s0.8,2.5,0.8,3.9v20.9c0,1.5-0.3,2.8-0.8,3.9
			c-0.6,1.2-1.4,2.1-2.4,2.8C69.8,49.9,68.5,50.3,67.1,50.3z M67.1,45.2c0.6,0,1.1-0.3,1.4-0.8s0.4-1.1,0.4-1.8V21.7
			c0-0.7-0.1-1.3-0.4-1.8s-0.7-0.8-1.3-0.8c-0.6,0-1,0.3-1.3,0.8s-0.4,1.1-0.4,1.8v20.9c0,0.7,0.1,1.3,0.4,1.8
			C66,44.9,66.5,45.2,67.1,45.2z"/>
		<path d="M84.4,50.3c-1.5,0-2.7-0.3-3.7-1s-1.8-1.6-2.4-2.8s-0.8-2.5-0.8-3.9V21.7c0-1.5,0.3-2.8,0.8-3.9c0.6-1.2,1.4-2.1,2.4-2.7
			c1-0.7,2.3-1,3.7-1c1.5,0,2.7,0.3,3.7,1s1.8,1.6,2.4,2.8s0.8,2.5,0.8,3.9v20.9c0,1.5-0.3,2.8-0.8,3.9c-0.6,1.2-1.4,2.1-2.4,2.8
			C87.1,49.9,85.8,50.3,84.4,50.3z M84.4,45.2c0.6,0,1.1-0.3,1.4-0.8s0.4-1.1,0.4-1.8V21.7c0-0.7-0.1-1.3-0.4-1.8
			C85.4,19.3,85,19,84.4,19s-1,0.3-1.3,0.8s-0.4,1.1-0.4,1.8v20.9c0,0.7,0.1,1.3,0.4,1.8C83.3,44.9,83.8,45.2,84.4,45.2z"/>
		<path d="M95,49.9V14.4h5.2v11.8v0.6h0.2l0.2-0.6l4.1-11.8h5.4l-4.8,11.7l5.4,23.8h-5.4l-3.5-16.2h-0.1l-1.5,3.6v12.6H95z"/>
		<path d="M120.6,49.9V14.4h4.9l4.8,18.5l0.4,1.6h0.3V14.4h4.8v35.5h-4.4l-5.3-18.5l-0.4-1.6h-0.3V50L120.6,49.9L120.6,49.9z"/>
		<path d="M146.4,50.3c-1.5,0-2.7-0.3-3.7-1s-1.8-1.6-2.4-2.8c-0.6-1.2-0.8-2.5-0.8-3.9V21.7c0-1.5,0.3-2.8,0.8-3.9
			c0.6-1.2,1.4-2.1,2.4-2.7c1-0.7,2.3-1,3.7-1c1.5,0,2.7,0.3,3.7,1s1.8,1.6,2.4,2.8c0.6,1.2,0.8,2.5,0.8,3.9v20.9
			c0,1.5-0.3,2.8-0.8,3.9c-0.6,1.2-1.4,2.1-2.4,2.8C149.1,49.9,147.8,50.3,146.4,50.3z M146.4,45.2c0.6,0,1.1-0.3,1.4-0.8
			c0.3-0.5,0.4-1.1,0.4-1.8V21.7c0-0.7-0.1-1.3-0.4-1.8c-0.3-0.5-0.7-0.8-1.3-0.8s-1,0.3-1.3,0.8s-0.4,1.1-0.4,1.8v20.9
			c0,0.7,0.1,1.3,0.4,1.8C145.3,44.9,145.8,45.2,146.4,45.2z"/>
		<path d="M160.6,49.9l-4.8-35.5h4.8l2.1,18.5l0.1,1.2h0.4l0.1-1.2l2.2-18.5h3.8l2.2,18.5l0.1,1.2h0.4l0.1-1.2l2.1-18.5h4.8
			l-4.8,35.5h-4.1l-2.4-16.8l-0.3-2.1h-0.2l-0.3,2.1l-2.4,16.8H160.6z"/>
	</g>
</g>
</svg>
