<?xml version="1.0" encoding="utf-8"?>
<!-- Generator: Adobe Illustrator 25.4.1, SVG Export Plug-In . SVG Version: 6.00 Build 0)  -->
<svg version="1.1" id="Layer_1" xmlns="http://www.w3.org/2000/svg" xmlns:xlink="http://www.w3.org/1999/xlink" x="0px" y="0px"
	 viewBox="0 0 290.9 22.3" style="enable-background:new 0 0 290.9 22.3;" xml:space="preserve">
<style type="text/css">
	.st1{fill:#FFFFFF;}
</style>
<g>
	<g>
		<path class="st1" d="M233.8,22.3l-3.5-9.7l-0.8,1.8v7.9H221V0h8.5v8.1l0,2.6L233.5,0h8.7l-4.5,10.6l5.2,11.7H233.8z M252.7,0v22.3
			h-8.4V0H252.7z M267.2,22.3l-5.7-9.9v9.9h-6.3V0h7.2l6,10.6V0h6.2v22.3H267.2z M290.2,0l-0.1,3.5L286,18.2h4.9l-0.1,4.1h-13.3
			v-3.7l4.5-14.5h-5L276.7,0H290.2z M219,0l-0.2,4.1h-5l4.5,14.5v3.7H205l-0.1-4.1h4.9l-4.1-14.7L205.5,0L219,0z"/>
	</g>
	<g>
		<path class="st1" d="M21.1,0.8c0.4,0.5,0.6,1.2,0.4,1.8L19.7,13c-0.3,1.5-1.6,2.6-3.1,2.6H7.9l-1.1,6.5H0L3.9,0h15.5
			C20.1,0,20.7,0.3,21.1,0.8z M14.3,3.9c-0.1-0.2-0.4-0.3-0.6-0.3H10L8.5,12h3.7c0.5,0,0.9-0.4,1-0.9l1.2-6.5
			C14.5,4.3,14.5,4.1,14.3,3.9z"/>
		<path class="st1" d="M41.3,0.8c0.4,0.5,0.6,1.2,0.4,1.8l-3,16.9c-0.3,1.5-1.6,2.6-3.1,2.6H22.5c-0.7,0-1.3-0.3-1.7-0.8
			c-0.4-0.5-0.6-1.2-0.4-1.8l3-16.9C23.7,1.1,25,0.1,26.5,0h13.1C40.2,0,40.8,0.3,41.3,0.8z M34.5,3.9c-0.1-0.2-0.4-0.3-0.6-0.3
			h-3.1c-0.5,0-0.9,0.4-1,0.9l-2.3,13.1c-0.1,0.2,0,0.4,0.1,0.6c0.1,0.2,0.4,0.3,0.6,0.3h3.1c0.5,0,0.9-0.4,1-0.9l2.3-13.1
			C34.7,4.3,34.6,4.1,34.5,3.9z"/>
		<path class="st1" d="M68,0l-3.9,22.2h-9.3l0.5-17.1l-5.6,17.1h-9.3L44.4,0h6.8l-2.5,14l4.6-14h5.9l-0.4,14l2.5-14H68z"/>
		<path class="st1" d="M76.8,3.7L75.3,12h8.6l-0.6,3.7h-8.6l-0.5,2.8h8.6l-0.6,3.7H66.8L70.7,0H86l-0.6,3.7H76.8z"/>
		<path class="st1" d="M105.9,0.8c0.4,0.5,0.6,1.2,0.4,1.8l-1.5,8.7c-0.2,0.9-0.6,1.8-1.2,2.5c0.4,0.8,0.5,1.7,0.4,2.5l-1,5.8h-6.8
			l1-5.6c0.1-0.2,0-0.4-0.1-0.6c-0.1-0.2-0.4-0.3-0.6-0.3h-3.7l-1.1,6.4h-6.8L88.7,0h15.5C104.8,0,105.5,0.3,105.9,0.8z M99.1,3.9
			c-0.1-0.2-0.4-0.3-0.6-0.3h-3.7L93.3,12H97c0.5,0,0.9-0.4,1-0.9l1.2-6.5C99.3,4.3,99.2,4.1,99.1,3.9z"/>
		<path class="st1" d="M115.1,3.7l-1.5,8.3h8.6l-0.6,3.7H113l-0.5,2.8h8.6l-0.6,3.7h-15.3L109,0h15.3l-0.6,3.7H115.1z"/>
		<path class="st1" d="M144.2,0.8c0.4,0.5,0.6,1.2,0.4,1.8l-3,17c-0.3,1.5-1.6,2.6-3.1,2.6h-15.5L127,0h15.5
			C143.2,0,143.8,0.3,144.2,0.8z M137.4,3.9c-0.1-0.2-0.4-0.3-0.6-0.3h-3.7l-2.6,14.8h3.7c0.5,0,0.9-0.4,1-0.9l2.3-13.1
			C137.6,4.3,137.6,4.1,137.4,3.9z"/>
		<path class="st1" d="M172.8,0.8c0.4,0.5,0.6,1.2,0.4,1.8l-1,5.9c-0.2,1-0.6,1.8-1.3,2.5c0.4,0.8,0.5,1.7,0.4,2.5l-1,5.9
			c-0.3,1.5-1.6,2.6-3.1,2.6h-15.5L155.5,0H171C171.7,0,172.3,0.3,172.8,0.8z M164.5,13.8c0.1-0.2,0-0.4-0.1-0.6S164,13,163.7,13
			H160l-1,5.5h3.7c0.5,0,0.9-0.4,1-0.9L164.5,13.8L164.5,13.8z M166.1,4.6c0.1-0.2,0-0.4-0.1-0.6c-0.1-0.2-0.4-0.3-0.6-0.3h-3.7
			l-1,5.5h3.7c0.5,0,0.9-0.4,1-0.9L166.1,4.6L166.1,4.6z"/>
		<path class="st1" d="M194,0l-3.4,19.6c-0.3,1.5-1.6,2.6-3.1,2.6H172l0.6-3.7h10.5c0.5,0,0.9-0.4,1-0.9l0.3-1.9h-8.7
			c-0.7,0-1.3-0.3-1.7-0.8c-0.4-0.5-0.6-1.2-0.4-1.8L175.9,0h6.8l-2,11.2c0,0.2,0,0.4,0.1,0.6c0.1,0.2,0.4,0.3,0.6,0.3h3.7L187.2,0
			H194z"/>
	</g>
</g>
</svg>
